# xmcd
#
# Track frame offsets:
# 150
# 17942
# 37425
# 48305
# 65127
# 76240
# 90172
# 107570
# 120432
# 137572
# 151990
# 165057
# 180737
# 195602
# 208935
# 226252
# 238580
# 254937
# 269742
# 286175
#
# Disc length: 4005 seconds
#
#
# Revision: 7
# Processed by: cddbd v1.5.2PL0 Copyright (c) Steve Scherf et al.
# Submitted via: FreeRIP 2.96 
#
DISCID=1a0fa314
DTITLE=Alan Jackson - The Greatest Hits Collection
DYEAR=1995
DGENRE=Country
TTITLE0=Chattahoochee
TTITLE1=Gone Country
TTITLE2=She's Got The Rhythm
TTITLE3=Midnight In Montgomery
TTITLE4=Tall, Tall Trees
TTITLE5=Chasin' That Neon Rainbow
TTITLE6=I'll Try
TTITLE7=Don't Rock The Jukebox
TTITLE8=Livin' On Love
TTITLE9=Summertime Blues
TTITLE10=Love's Got A Hold On You
TTITLE11=(Who Says) You Can't Have It All
TTITLE12=Home
TTITLE13=Wanted
TTITLE14=I Don't Even Know Your Name
TTITLE15=Dallas
TTITLE16=Here In The Real World
TTITLE17=Someday
TTITLE18=Mercury Blues
TTITLE19=I'd Love You All Over Again
EXTD=
EXTT0=
EXTT1=
EXTT2=
EXTT3=
EXTT4=
EXTT5=
EXTT6=
EXTT7=
EXTT8=
EXTT9=
EXTT10=
EXTT11=
EXTT12=
EXTT13=
EXTT14=
EXTT15=
EXTT16=
EXTT17=
EXTT18=
EXTT19=
PLAYORDER=
